<?xml version="1.0" encoding="UTF-8" standalone="no"?>
<!DOCTYPE svg PUBLIC "-//W3C//DTD SVG 1.1//EN" "http://www.w3.org/Graphics/SVG/1.1/DTD/svg11.dtd">
<svg version="1.1" xmlns="http://www.w3.org/2000/svg" xmlns:xlink="http://www.w3.org/1999/xlink" preserveAspectRatio="xMidYMid meet" viewBox="0 0 20 20" width="27" height="27"><defs><path d="M10.01 2.96L10.26 2.98L10.5 3.02L10.74 3.06L10.98 3.11L11.21 3.18L11.44 3.25L11.66 3.33L11.88 3.42L12.1 3.51L12.31 3.62L12.52 3.73L12.72 3.85L12.92 3.98L13.11 4.11L13.3 4.26L13.48 4.4L13.65 4.56L13.82 4.72L13.98 4.89L14.14 5.07L14.29 5.25L14.43 5.43L14.56 5.62L14.69 5.82L14.81 6.02L14.92 6.23L15.03 6.44L15.13 6.66L15.21 6.88L15.29 7.11L15.37 7.33L15.43 7.57L15.48 7.8L15.53 8.04L15.56 8.29L15.58 8.53L15.6 8.78L15.61 9.03L15.6 9.28L15.58 9.53L15.56 9.78L15.53 10.02L15.48 10.26L15.43 10.5L15.37 10.73L15.29 10.96L15.21 11.18L15.13 11.4L15.03 11.62L14.92 11.83L14.81 12.04L14.69 12.24L14.57 12.43L18.42 16.28L16.76 17.94L12.91 14.09L12.72 14.21L12.52 14.33L12.31 14.45L12.1 14.55L11.88 14.65L11.66 14.73L11.44 14.81L11.21 14.89L10.98 14.95L10.74 15L10.5 15.05L10.26 15.08L10.01 15.11L9.76 15.12L9.51 15.13L9.26 15.12L9.01 15.11L8.77 15.08L8.52 15.05L8.28 15L8.05 14.95L7.81 14.89L7.59 14.81L7.36 14.73L7.14 14.65L6.92 14.55L6.71 14.45L6.5 14.33L6.3 14.21L6.1 14.08L5.91 13.95L5.73 13.81L5.55 13.66L5.37 13.5L5.2 13.34L5.04 13.17L4.88 13L4.74 12.82L4.59 12.63L4.46 12.44L4.33 12.24L4.21 12.04L4.1 11.83L3.99 11.62L3.9 11.4L3.81 11.18L3.73 10.96L3.66 10.73L3.59 10.5L3.54 10.26L3.5 10.02L3.46 9.78L3.44 9.53L3.42 9.28L3.42 9.03L3.42 8.78L3.44 8.53L3.46 8.29L3.5 8.04L3.54 7.8L3.59 7.57L3.66 7.33L3.73 7.11L3.81 6.88L3.9 6.66L3.99 6.44L4.1 6.23L4.21 6.02L4.33 5.82L4.46 5.62L4.59 5.43L4.74 5.25L4.88 5.07L5.04 4.89L5.2 4.72L5.37 4.56L5.55 4.4L5.73 4.26L5.91 4.11L6.1 3.98L6.3 3.85L6.5 3.73L6.71 3.62L6.92 3.51L7.14 3.42L7.36 3.33L7.59 3.25L7.81 3.18L8.05 3.11L8.28 3.06L8.52 3.02L8.77 2.98L9.01 2.96L9.26 2.94L9.51 2.94L9.76 2.94L10.01 2.96ZM9.2 5.28L9.05 5.3L8.9 5.32L8.75 5.35L8.61 5.38L8.46 5.42L8.32 5.46L8.18 5.51L8.05 5.57L7.91 5.63L7.78 5.69L7.66 5.76L7.53 5.83L7.41 5.91L7.29 6L7.18 6.08L7.06 6.18L6.96 6.27L6.85 6.37L6.75 6.48L6.66 6.58L6.56 6.7L6.48 6.81L6.39 6.93L6.31 7.05L6.24 7.18L6.17 7.3L6.11 7.43L6.05 7.57L5.99 7.7L5.94 7.84L5.9 7.98L5.86 8.13L5.83 8.27L5.8 8.42L5.78 8.57L5.76 8.72L5.75 8.88L5.75 9.03L5.75 9.19L5.76 9.34L5.78 9.49L5.8 9.64L5.83 9.79L5.86 9.94L5.9 10.08L5.94 10.22L5.99 10.36L6.05 10.5L6.11 10.63L6.17 10.76L6.24 10.89L6.31 11.01L6.39 11.13L6.48 11.25L6.56 11.37L6.66 11.48L6.75 11.59L6.85 11.69L6.96 11.79L7.06 11.89L7.18 11.98L7.29 12.07L7.41 12.15L7.53 12.23L7.66 12.3L7.78 12.37L7.91 12.44L8.05 12.5L8.18 12.55L8.32 12.6L8.46 12.64L8.61 12.68L8.75 12.72L8.9 12.74L9.05 12.76L9.2 12.78L9.36 12.79L9.51 12.79L9.67 12.79L9.82 12.78L9.97 12.76L10.12 12.74L10.27 12.72L10.41 12.68L10.56 12.64L10.7 12.6L10.84 12.55L10.97 12.5L11.11 12.44L11.24 12.37L11.37 12.3L11.49 12.23L11.61 12.15L11.73 12.07L11.85 11.98L11.96 11.89L12.07 11.79L12.17 11.69L12.27 11.59L12.37 11.48L12.46 11.37L12.55 11.25L12.63 11.13L12.71 11.01L12.78 10.89L12.85 10.76L12.92 10.63L12.98 10.5L13.03 10.36L13.08 10.22L13.12 10.08L13.16 9.94L13.19 9.79L13.22 9.64L13.24 9.49L13.26 9.34L13.27 9.19L13.27 9.03L13.27 8.88L13.26 8.72L13.24 8.57L13.22 8.42L13.19 8.27L13.16 8.13L13.12 7.98L13.08 7.84L13.03 7.7L12.98 7.57L12.92 7.43L12.85 7.3L12.78 7.18L12.71 7.05L12.63 6.93L12.55 6.81L12.46 6.7L12.37 6.58L12.27 6.48L12.17 6.37L12.07 6.27L11.96 6.18L11.85 6.08L11.73 6L11.61 5.91L11.49 5.83L11.37 5.76L11.24 5.69L11.11 5.63L10.97 5.57L10.84 5.51L10.7 5.46L10.56 5.42L10.41 5.38L10.27 5.35L10.12 5.32L9.97 5.3L9.82 5.28L9.67 5.27L9.51 5.27L9.36 5.27L9.2 5.28Z" id="ir2EcChld"></path></defs><g><g><g><use xlink:href="#ir2EcChld" opacity="1" fill="#dadada" fill-opacity="1"></use></g></g></g></svg>